<svg xmlns="http://www.w3.org/2000/svg" width="418.331" height="117.995" viewBox="0 0 418.331 117.995">
  <g id="Group_3881" data-name="Group 3881" transform="translate(2383.331 -8931)">
    <g id="Group_3880" data-name="Group 3880" transform="translate(-2478.39 8299.998)">
      <circle id="Ellipse_272" data-name="Ellipse 272" cx="58.998" cy="58.998" r="58.998" transform="translate(95.059 631.002)" fill="#00bffe"/>
      <circle id="Ellipse_273" data-name="Ellipse 273" cx="45.383" cy="45.383" r="45.383" transform="translate(108.674 644.617)" fill="#0f64e7"/>
      <circle id="Ellipse_274" data-name="Ellipse 274" cx="31.768" cy="31.768" r="31.768" transform="translate(122.289 658.232)" fill="#0b41b1"/>
      <g id="Group_3874" data-name="Group 3874">
        <g id="Group_3873" data-name="Group 3873">
          <path id="Path_11164" data-name="Path 11164" d="M156.8,665.063c-.045,8.072-.028,15.649,0,23.341a13.864,13.864,0,0,0,1.869,7.905,12.925,12.925,0,0,0,11.056,5.684c1.186-.042,5.453-.217,7.184-3.191a5.261,5.261,0,0,0,.664-2.81c-.006,0-2.678.243-5.54.231-3.085-.1-4.034-.115-6-.923-1.871-1.039-2.387-3.423-2.539-4.386-.457-.581-.145-19.2-.231-20.341A5.592,5.592,0,0,0,156.8,665.063Z" fill="#fab90d"/>
          <path id="Path_11165" data-name="Path 11165" d="M151.316,665.063c.045,8.072.027,15.649,0,23.341a13.857,13.857,0,0,1-1.87,7.905,12.925,12.925,0,0,1-11.056,5.684c-1.185-.042-5.453-.217-7.183-3.191a5.252,5.252,0,0,1-.664-2.81c.006,0,2.677.243,5.539.231,3.086-.1,4.034-.115,6-.923,1.872-1.039,2.387-3.423,2.539-4.386.458-.581.146-19.2.231-20.341A5.593,5.593,0,0,1,151.316,665.063Z" fill="#fab90d"/>
        </g>
      </g>
      <g id="Group_3879" data-name="Group 3879">
        <g id="Group_3875" data-name="Group 3875">
          <path id="Path_11166" data-name="Path 11166" d="M248.119,662.749l.04,34.034a9.869,9.869,0,0,1-.81,4,10.589,10.589,0,0,1-2.218,3.287,10.334,10.334,0,0,1-3.292,2.211,9.957,9.957,0,0,1-4.022.821,10.256,10.256,0,0,1-2.7-.363,9.642,9.642,0,0,1-2.491-1.034l.015,11.1a21.654,21.654,0,0,0,5.184.639,20.117,20.117,0,0,0,8.059-1.633,20.593,20.593,0,0,0,10.965-10.992,20.008,20.008,0,0,0,1.614-8.05l-.041-34.035Z" fill="#f1f1f2"/>
          <path id="Path_11167" data-name="Path 11167" d="M303.627,696.995a20.478,20.478,0,0,1-28.311,18.837,20.7,20.7,0,0,1-6.5-4.282,20.008,20.008,0,0,1-4.392-6.448,20.213,20.213,0,0,1-1.612-8.059,20.5,20.5,0,0,1,1.594-8.148,19.881,19.881,0,0,1,4.375-6.478,20.5,20.5,0,0,1,14.411-5.839,21.567,21.567,0,0,1,7.966,1.453,19.282,19.282,0,0,1,6.476,4.136,19.609,19.609,0,0,1,4.373,6.449,21.229,21.229,0,0,1,1.617,8.379m-10.26.013a11.147,11.147,0,0,0-.808-4.309,10.238,10.238,0,0,0-2.186-3.313,9.455,9.455,0,0,0-3.228-2.123,10.837,10.837,0,0,0-7.872.012,9.266,9.266,0,0,0-3.207,2.129,10.151,10.151,0,0,0-2.141,3.32,11.4,11.4,0,0,0-.777,4.31,10.809,10.809,0,0,0,.789,4.143,10.359,10.359,0,0,0,2.149,3.316,9.977,9.977,0,0,0,3.211,2.213,9.651,9.651,0,0,0,3.933.807,10.237,10.237,0,0,0,3.938-.763,9.816,9.816,0,0,0,3.224-2.129,9.962,9.962,0,0,0,2.178-3.322,11.2,11.2,0,0,0,.8-4.291" fill="#f1f1f2"/>
          <path id="Path_11168" data-name="Path 11168" d="M348.785,696.937a20.478,20.478,0,0,1-28.311,18.838,20.675,20.675,0,0,1-6.5-4.282,19.951,19.951,0,0,1-4.393-6.45,20.179,20.179,0,0,1-1.612-8.056,20.478,20.478,0,0,1,1.594-8.149,19.857,19.857,0,0,1,4.374-6.478,20.514,20.514,0,0,1,14.411-5.84,21.624,21.624,0,0,1,7.966,1.453,19.26,19.26,0,0,1,6.477,4.137,19.581,19.581,0,0,1,4.372,6.448,21.2,21.2,0,0,1,1.618,8.379m-10.261.013a11.115,11.115,0,0,0-.808-4.307,10.222,10.222,0,0,0-2.186-3.314,9.444,9.444,0,0,0-3.227-2.124,10.854,10.854,0,0,0-7.873.012,9.277,9.277,0,0,0-3.206,2.129,10.124,10.124,0,0,0-2.141,3.319,11.4,11.4,0,0,0-.778,4.312,10.843,10.843,0,0,0,.788,4.142,10.385,10.385,0,0,0,2.15,3.316,9.99,9.99,0,0,0,3.212,2.214,9.7,9.7,0,0,0,3.934.807,10.265,10.265,0,0,0,3.936-.763,9.838,9.838,0,0,0,3.225-2.13,9.95,9.95,0,0,0,2.177-3.322,11.175,11.175,0,0,0,.8-4.291" fill="#f1f1f2"/>
          <path id="Path_11169" data-name="Path 11169" d="M392.594,716.532h0a4.658,4.658,0,0,1-3.774-1.926l-2.433-3.368a31.719,31.719,0,0,1-2.972,2.366,21.974,21.974,0,0,1-3.3,1.915,20.058,20.058,0,0,1-3.382,1.241,18.7,18.7,0,0,1-4.4.509,19.149,19.149,0,0,1-7.127-1.516,19.462,19.462,0,0,1-6.278-4.244,20.051,20.051,0,0,1-4.245-6.449,22.05,22.05,0,0,1-.018-16.242,20.1,20.1,0,0,1,4.228-6.494,19.514,19.514,0,0,1,6.266-4.3,19.116,19.116,0,0,1,7.66-1.561,17.348,17.348,0,0,1,2.686.214,14.059,14.059,0,0,1,2.7.7,11.022,11.022,0,0,1,2.474,1.277,7.426,7.426,0,0,1,1.948,1.944l-.021-18.028,9.915-.011Zm-9.937-19.638a10.26,10.26,0,0,0-.78-3.908,11.249,11.249,0,0,0-2.114-3.352,10.471,10.471,0,0,0-3.119-2.339,8.482,8.482,0,0,0-3.808-.881,10.093,10.093,0,0,0-3.8.726,8.971,8.971,0,0,0-3.1,2.077,9.691,9.691,0,0,0-2.069,3.3,12.087,12.087,0,0,0-.752,4.4,10.935,10.935,0,0,0,2.84,7.385,9.588,9.588,0,0,0,3.1,2.268,8.9,8.9,0,0,0,3.8.828,8.477,8.477,0,0,0,3.8-.89,10.553,10.553,0,0,0,3.116-2.348,11.28,11.28,0,0,0,2.1-3.356,10.21,10.21,0,0,0,.771-3.912" fill="#f1f1f2"/>
        </g>
        <path id="Path_11170" data-name="Path 11170" d="M248.119,662.749l.04,34.034a9.869,9.869,0,0,1-.81,4,10.589,10.589,0,0,1-2.218,3.287,10.334,10.334,0,0,1-3.292,2.211,9.957,9.957,0,0,1-4.022.821,10.256,10.256,0,0,1-2.7-.363,9.642,9.642,0,0,1-2.491-1.034l.015,11.1a21.654,21.654,0,0,0,5.184.639,20.117,20.117,0,0,0,8.059-1.633,20.593,20.593,0,0,0,10.965-10.992,20.008,20.008,0,0,0,1.614-8.05l-.041-34.035Z" fill="#f1f1f2"/>
        <path id="Path_11171" data-name="Path 11171" d="M303.627,696.995a20.478,20.478,0,0,1-28.311,18.837,20.7,20.7,0,0,1-6.5-4.282,20.008,20.008,0,0,1-4.392-6.448,20.213,20.213,0,0,1-1.612-8.059,20.5,20.5,0,0,1,1.594-8.148,19.881,19.881,0,0,1,4.375-6.478,20.5,20.5,0,0,1,14.411-5.839,21.567,21.567,0,0,1,7.966,1.453,19.282,19.282,0,0,1,6.476,4.136,19.609,19.609,0,0,1,4.373,6.449,21.229,21.229,0,0,1,1.617,8.379m-10.26.013a11.147,11.147,0,0,0-.808-4.309,10.238,10.238,0,0,0-2.186-3.313,9.455,9.455,0,0,0-3.228-2.123,10.837,10.837,0,0,0-7.872.012,9.266,9.266,0,0,0-3.207,2.129,10.151,10.151,0,0,0-2.141,3.32,11.4,11.4,0,0,0-.777,4.31,10.809,10.809,0,0,0,.789,4.143,10.359,10.359,0,0,0,2.149,3.316,9.977,9.977,0,0,0,3.211,2.213,9.651,9.651,0,0,0,3.933.807,10.237,10.237,0,0,0,3.938-.763,9.816,9.816,0,0,0,3.224-2.129,9.962,9.962,0,0,0,2.178-3.322,11.2,11.2,0,0,0,.8-4.291" fill="#f1f1f2"/>
        <path id="Path_11172" data-name="Path 11172" d="M348.785,696.937a20.478,20.478,0,0,1-28.311,18.838,20.675,20.675,0,0,1-6.5-4.282,19.951,19.951,0,0,1-4.393-6.45,20.179,20.179,0,0,1-1.612-8.056,20.478,20.478,0,0,1,1.594-8.149,19.857,19.857,0,0,1,4.374-6.478,20.514,20.514,0,0,1,14.411-5.84,21.624,21.624,0,0,1,7.966,1.453,19.26,19.26,0,0,1,6.477,4.137,19.581,19.581,0,0,1,4.372,6.448,21.2,21.2,0,0,1,1.618,8.379m-10.261.013a11.115,11.115,0,0,0-.808-4.307,10.222,10.222,0,0,0-2.186-3.314,9.444,9.444,0,0,0-3.227-2.124,10.854,10.854,0,0,0-7.873.012,9.277,9.277,0,0,0-3.206,2.129,10.124,10.124,0,0,0-2.141,3.319,11.4,11.4,0,0,0-.778,4.312,10.843,10.843,0,0,0,.788,4.142,10.385,10.385,0,0,0,2.15,3.316,9.99,9.99,0,0,0,3.212,2.214,9.7,9.7,0,0,0,3.934.807,10.265,10.265,0,0,0,3.936-.763,9.838,9.838,0,0,0,3.225-2.13,9.95,9.95,0,0,0,2.177-3.322,11.175,11.175,0,0,0,.8-4.291" fill="#f1f1f2"/>
        <path id="Path_11173" data-name="Path 11173" d="M392.594,716.532h0a4.658,4.658,0,0,1-3.774-1.926l-2.433-3.368a31.719,31.719,0,0,1-2.972,2.366,21.974,21.974,0,0,1-3.3,1.915,20.058,20.058,0,0,1-3.382,1.241,18.7,18.7,0,0,1-4.4.509,19.149,19.149,0,0,1-7.127-1.516,19.462,19.462,0,0,1-6.278-4.244,20.051,20.051,0,0,1-4.245-6.449,22.05,22.05,0,0,1-.018-16.242,20.1,20.1,0,0,1,4.228-6.494,19.514,19.514,0,0,1,6.266-4.3,19.116,19.116,0,0,1,7.66-1.561,17.348,17.348,0,0,1,2.686.214,14.059,14.059,0,0,1,2.7.7,11.022,11.022,0,0,1,2.474,1.277,7.426,7.426,0,0,1,1.948,1.944l-.021-18.028,9.915-.011Zm-9.937-19.638a10.26,10.26,0,0,0-.78-3.908,11.249,11.249,0,0,0-2.114-3.352,10.471,10.471,0,0,0-3.119-2.339,8.482,8.482,0,0,0-3.808-.881,10.093,10.093,0,0,0-3.8.726,8.971,8.971,0,0,0-3.1,2.077,9.691,9.691,0,0,0-2.069,3.3,12.087,12.087,0,0,0-.752,4.4,10.935,10.935,0,0,0,2.84,7.385,9.588,9.588,0,0,0,3.1,2.268,8.9,8.9,0,0,0,3.8.828,8.477,8.477,0,0,0,3.8-.89,10.553,10.553,0,0,0,3.116-2.348,11.28,11.28,0,0,0,2.1-3.356,10.21,10.21,0,0,0,.771-3.912" fill="#f1f1f2"/>
        <g id="Group_3878" data-name="Group 3878">
          <g id="Group_3877" data-name="Group 3877">
            <g id="Group_3876" data-name="Group 3876">
              <path id="Path_11174" data-name="Path 11174" d="M431.295,712.187v5.088H411.244v-54.72h5.1v49.632Z" fill="#f1f1f2"/>
            </g>
          </g>
        </g>
        <path id="Path_11175" data-name="Path 11175" d="M513.376,698.762V698.7a17.908,17.908,0,0,0-1.308-5.922,17.606,17.606,0,0,0-2.875-4.757c-.244-.288-.489-.561-.748-.82a16.8,16.8,0,0,0-5.347-3.665,16.336,16.336,0,0,0-6.525-1.322H496.5a16.344,16.344,0,0,0-6.526,1.322,16.822,16.822,0,0,0-5.347,3.665c-.258.259-.5.532-.747.82l.014-25.471h-4.168l-.043,51.257,2.875-3.982.143.13a15.8,15.8,0,0,0,1.955,2.4,16.6,16.6,0,0,0,11.427,4.916,4.012,4.012,0,0,0,.4-.014.124.124,0,0,0,.1,0,4,4,0,0,0,.4.014,16.607,16.607,0,0,0,11.427-4.916,15.8,15.8,0,0,0,1.954-2.4,18.6,18.6,0,0,0,1.682-3.134,18.056,18.056,0,0,0,1.323-6.051v-.029c.014-.316.014-.632.014-.948C513.39,699.452,513.39,699.107,513.376,698.762Zm-4.758,4.9c-.058.2-.129.417-.2.618-.058.158-.115.331-.187.489a14.681,14.681,0,0,1-2.645,4.211,13.372,13.372,0,0,1-3.967,2.976,11.393,11.393,0,0,1-2.7.948c-.3.072-.633.115-.949.158a11.717,11.717,0,0,1-1.423.087h-.014a11.7,11.7,0,0,1-1.423-.087,11.3,11.3,0,0,1-3.651-1.106,13.372,13.372,0,0,1-3.967-2.976,14.68,14.68,0,0,1-2.645-4.211c-.072-.158-.129-.331-.187-.489-.072-.215-.144-.417-.2-.618a14.515,14.515,0,0,1-.546-3.866,17.162,17.162,0,0,1,.1-1.941c.015-.014.015-.043.015-.072a13.766,13.766,0,0,1,3.492-7.215,13.276,13.276,0,0,1,3.968-2.976,11.627,11.627,0,0,1,4.384-1.164c.2-.014.416-.014.632-.014h.014c.23,0,.46,0,.69.014a11.632,11.632,0,0,1,4.384,1.164,13.272,13.272,0,0,1,3.967,2.976,13.781,13.781,0,0,1,3.493,7.215.126.126,0,0,1,.015.072,17.4,17.4,0,0,1,.1,1.941A14.516,14.516,0,0,1,508.618,703.663Z" fill="#f1f1f2"/>
        <path id="Path_11176" data-name="Path 11176" d="M468.864,682.275H464.7l.014,5.75c-.245-.288-.489-.561-.748-.82a16.807,16.807,0,0,0-5.346-3.665,16.2,16.2,0,0,0-5.161-1.265c-.46-.043-.9-.057-1.365-.057h-.072c-.46,0-.906.014-1.366.057a16.2,16.2,0,0,0-5.16,1.265,16.822,16.822,0,0,0-5.347,3.665c-.258.259-.5.532-.747.82a17.556,17.556,0,0,0-2.875,4.757,17.882,17.882,0,0,0-1.308,5.922v.058c-.014.345-.014.69-.014,1.035,0,.316,0,.632.014.948v.029a18.032,18.032,0,0,0,1.323,6.051,18.6,18.6,0,0,0,1.681,3.134,15.8,15.8,0,0,0,1.955,2.4,16.6,16.6,0,0,0,11.427,4.916,4.012,4.012,0,0,0,.4-.014.124.124,0,0,0,.1,0,4,4,0,0,0,.4.014,16.607,16.607,0,0,0,11.427-4.916,15.865,15.865,0,0,0,1.955-2.4l.143-.13,2.875,3.982Zm-4.729,21.388c-.058.2-.129.4-.2.618-.058.158-.115.331-.187.489a14.68,14.68,0,0,1-2.645,4.211,13.372,13.372,0,0,1-3.967,2.976,11.3,11.3,0,0,1-3.651,1.106,11.717,11.717,0,0,1-1.423.087h-.014a11.7,11.7,0,0,1-1.423-.087c-.316-.043-.647-.086-.949-.158a11.393,11.393,0,0,1-2.7-.948,13.372,13.372,0,0,1-3.967-2.976,14.68,14.68,0,0,1-2.645-4.211c-.072-.158-.129-.331-.187-.489-.072-.2-.144-.417-.2-.618a14.516,14.516,0,0,1-.546-3.866,17.162,17.162,0,0,1,.1-1.941.126.126,0,0,1,.015-.072,13.766,13.766,0,0,1,3.492-7.215A13.276,13.276,0,0,1,447,687.593a11.627,11.627,0,0,1,4.384-1.164c.229-.014.459-.014.689-.014h.015c.215,0,.431,0,.632.014a11.632,11.632,0,0,1,4.384,1.164,13.259,13.259,0,0,1,3.967,2.976,13.759,13.759,0,0,1,3.493,7.215c0,.029,0,.058.015.072a17.4,17.4,0,0,1,.1,1.941A14.516,14.516,0,0,1,464.135,703.663Z" fill="#f1f1f2"/>
      </g>
    </g>
  </g>
</svg>
